# xmcd
#
# Track frame offsets: 
#        150
#        64053
#        117185
#        144367
#        188544
#        206326
#
# Disc length: 3411 seconds
#
# Revision: 0
# Processed by: cddbd v1.5.1PL2 Copyright (c) Steve Scherf et al.
# Submitted via: ExactAudioCopy v0.95b3
#
DISCID=4b0d5106
DTITLE=Danny Kreutzfeldt - Closelands
DYEAR=2006
DGENRE=Ambient
TTITLE0=Verge
TTITLE1=Ridge
TTITLE2=Road
TTITLE3=Crust
TTITLE4=Summit
TTITLE5=Lair
EXTD=
EXTT0=
EXTT1=
EXTT2=
EXTT3=
EXTT4=
EXTT5=
PLAYORDER=
